<?xml version="1.0" standalone="no"?>
<!DOCTYPE svg PUBLIC "-//W3C//DTD SVG 20010904//EN"
 "http://www.w3.org/TR/2001/REC-SVG-20010904/DTD/svg10.dtd">
<svg version="1.0" xmlns="http://www.w3.org/2000/svg"
 width="600.000000pt" height="600.000000pt" viewBox="0 0 600.000000 600.000000"
 preserveAspectRatio="xMidYMid meet">

<g transform="translate(0.000000,600.000000) scale(0.100000,-0.100000)"
fill="#000000" stroke="none">
<path d="M605 5975 c-299 -76 -510 -291 -584 -597 l-21 -87 0 -2293 0 -2293
24 -96 c76 -306 301 -524 608 -589 89 -20 147 -20 2368 -20 2221 0 2279 0
2368 20 310 66 539 292 612 604 20 86 20 111 20 2377 l0 2290 -21 87 c-76 309
-286 523 -588 598 l-96 24 -2300 -1 -2300 -1 -90 -23z m4068 -1964 c111 -38
188 -109 241 -221 29 -60 31 -73 31 -175 0 -100 -3 -115 -28 -167 -43 -88
-107 -152 -195 -195 -74 -37 -79 -38 -187 -38 -104 0 -114 2 -177 33 -80 39
-156 118 -195 203 l-27 59 -261 0 c-251 0 -261 -1 -300 -23 -62 -35 -93 -88
-111 -190 -19 -114 -45 -180 -92 -242 l-39 -49 43 -58 c48 -66 68 -118 89
-235 7 -45 20 -94 28 -110 34 -64 102 -103 180 -103 l53 0 23 54 c61 148 213
246 381 246 224 0 396 -163 408 -385 10 -181 -74 -321 -237 -399 -62 -29 -73
-31 -176 -31 -104 0 -114 2 -177 33 -82 40 -165 127 -197 204 l-22 54 -89 10
c-116 14 -200 54 -268 129 -65 71 -89 123 -113 242 -25 126 -33 146 -79 187
-49 44 -93 56 -203 56 -75 0 -88 -3 -93 -17 -60 -180 -243 -305 -423 -290
-167 14 -311 121 -362 270 l-13 37 -111 0 -111 0 -29 -67 c-72 -165 -261 -267
-441 -236 -135 23 -245 106 -306 230 -31 64 -33 73 -33 178 0 102 2 115 31
175 83 176 288 274 474 226 126 -33 226 -116 276 -230 l28 -66 111 0 110 0 18
49 c22 63 83 141 143 182 218 149 504 72 616 -166 l30 -65 86 0 c107 0 152 12
198 52 47 42 60 69 79 174 25 132 49 186 112 254 62 67 145 114 232 130 29 5
163 10 296 10 l241 0 23 54 c40 98 138 188 244 226 72 26 196 26 270 1z"/>
<path d="M4450 3798 c-97 -50 -138 -172 -88 -268 50 -98 173 -138 268 -88 135
73 147 254 22 342 -58 41 -139 47 -202 14z"/>
<path d="M1435 3205 c-5 -2 -22 -6 -37 -9 -39 -9 -98 -64 -119 -111 -91 -199
174 -378 322 -218 56 59 74 141 48 210 -12 33 -64 90 -99 108 -27 13 -98 26
-115 20z"/>
<path d="M2442 3201 c-91 -23 -152 -103 -152 -201 0 -189 240 -264 357 -112
74 97 43 236 -66 292 -47 23 -97 31 -139 21z"/>
<path d="M4045 2572 c-186 -89 -133 -366 72 -380 202 -13 291 245 125 362 -55
39 -138 46 -197 18z"/>
</g>
</svg>
